<svg xmlns="http://www.w3.org/2000/svg" viewBox="0 0 256 256">
  <defs>
    <radialGradient id="g" cx="50%" cy="35%" r="70%">
      <stop offset="0%" stop-color="#f6d365"/>
      <stop offset="55%" stop-color="#c9a227"/>
      <stop offset="100%" stop-color="#6b4f00"/>
    </radialGradient>
    <linearGradient id="b" x1="0" x2="1">
      <stop offset="0" stop-color="#0b2a55"/>
      <stop offset="1" stop-color="#07162b"/>
    </linearGradient>
  </defs>
  <rect width="256" height="256" rx="48" fill="url(#b)"/>
  <path d="M170 60c-38 8-66 42-66 82 0 30 16 57 42 72-44-6-78-44-78-90 0-52 42-94 94-94 3 0 6 0 8 0z" fill="url(#g)" opacity="0.95"/>
  <path d="M187 94l6 14 15 1-12 9 4 15-13-8-13 8 4-15-12-9 15-1z" fill="#f9e7a3" opacity="0.9"/>
</svg>
